<svg viewBox="0 0 40 40" fill="none" xmlns="http://www.w3.org/2000/svg">
<style>
  :root {
    --color-N600: #0f1e57;
    --color-brand: #e4002b;
    --color-blue-light: #e5eaff;
  }
  @media (prefers-color-scheme: dark) {
    :root {
      --color-N600: #e5eaff;
      --color-blue-light: #0e41aa;
    }
  }
</style>
<path d="M31.04 22.5293C30.17 21.4193 29.42 20.4693 29.42 19.0593C29.42 18.9493 29.35 18.8393 29.25 18.7893C29.14 18.7393 29.02 18.7493 28.92 18.8093C27.51 19.7593 26.33 21.3693 25.92 22.9093C25.63 23.9793 25.6 25.1793 25.59 25.9693C24.29 25.7093 23.99 23.8593 23.99 23.8393C23.98 23.7393 23.91 23.6593 23.82 23.6193C23.73 23.5793 23.62 23.5693 23.53 23.6093C23.46 23.6393 21.85 24.4093 21.76 27.4993C21.75 27.5993 21.75 27.7093 21.75 27.8093C21.75 30.8093 24.33 33.2493 27.5 33.2493H27.51C30.67 33.2393 33.24 30.8093 33.24 27.8093C33.24 27.6593 33.21 27.2393 33.21 27.2393C33.04 25.0793 31.97 23.7293 31.04 22.5293Z" fill="var(--color-blue-light, #e5eaff)"/>
<path d="M27.5 14C27.4898 14 27.4898 14 27.5 14C20.602 14 15 19.6122 15 26.5102C15 29.8469 16.3061 32.9898 18.6633 35.3469C21.0204 37.7041 24.1633 39 27.5 39H27.5102C30.8469 39 33.9898 37.6939 36.3469 35.3367C38.7041 32.9796 40 29.8367 40 26.5C40 23.1633 38.6938 20.0204 36.3367 17.6633C33.9693 15.3061 30.8367 14 27.5 14ZM35.2551 34.2551C33.1837 36.3265 30.4286 37.4694 27.5 37.4694C27.5 37.4694 27.5 37.4694 27.4898 37.4694C24.5612 37.4694 21.8061 36.3265 19.7347 34.2653C17.6633 32.1939 16.5204 29.4388 16.5204 26.5102C16.5204 20.4592 21.4388 15.5408 27.4796 15.5306C27.4796 15.5306 27.4796 15.5306 27.4898 15.5306C30.4184 15.5306 33.1735 16.6735 35.2449 18.7347C37.3163 20.8061 38.4592 23.5612 38.4592 26.4898C38.4694 29.4286 37.3265 32.1837 35.2551 34.2551Z" fill="var(--color-brand, #e4002b)"/>
<path d="M14.2422 17.6663H11.11V11.3337H22.7V12.2497C22.7 12.6599 23.04 13 23.45 13C23.86 13 24.2 12.6599 24.2 12.2497V11.3337H30.5V12.2575C30.5 12.6677 30.84 13.0078 31.25 13.0078C31.66 13.0078 32 12.6677 32 12.2575V5.53141C32 3.59064 30.48 2.01 28.62 2.01H17.11C17.09 2.01 17.07 2 17.04 2C17.02 2 17 2.01 16.97 2.01H5.37998C3.50998 2.01 2 3.59064 2 5.53141V23.4786C2 25.4194 3.51998 27 5.37998 27H12.38C12.79 27 13.13 26.6599 13.13 26.2497C13.13 25.8395 12.79 25.4994 12.38 25.4994H5.37998C4.33998 25.4994 3.5 24.589 3.5 23.4786V19.1769H14.2422C14.6522 19.1769 14.9922 18.8367 14.9922 18.4266C14.9922 18.0164 14.6622 17.6663 14.2422 17.6663ZM30.5 5.53141V9.83313H17.79V3.5006H28.61C29.66 3.5006 30.5 4.41096 30.5 5.53141ZM5.38999 3.5006H16.3V9.83313H3.51001V5.53141C3.50001 4.41096 4.34999 3.5006 5.38999 3.5006ZM3.5 11.3337H9.61001V17.6663H3.5V11.3337Z" fill="var(--color-N600, #0f1e57)"/>
<path d="M33.96 27.1792C33.77 24.7892 32.58 23.2792 31.62 22.0592C30.8 21.0192 30.16 20.1992 30.16 19.0492C30.16 18.6492 29.93 18.2892 29.57 18.1092C29.22 17.9392 28.8 17.9692 28.49 18.1892C26.94 19.2392 25.64 21.0192 25.19 22.7192C25.05 23.2592 24.96 23.8192 24.91 24.3492C24.81 24.0992 24.75 23.8692 24.73 23.7292C24.68 23.3992 24.47 23.0992 24.15 22.9492C23.85 22.7992 23.51 22.7992 23.22 22.9392C23.01 23.0392 21.12 23.9992 21.01 27.4592C21 27.5792 21 27.6992 21 27.8192C21 31.2292 23.92 34.0092 27.52 34.0092C31.09 33.9992 34 31.2192 34 27.8192C34 27.6492 33.96 27.1892 33.96 27.1792ZM27.5 32.4992C24.74 32.4992 22.5 30.3992 22.5 27.8092C22.5 27.7192 22.5 27.6392 22.51 27.5192C22.56 25.9092 23.05 25.0592 23.42 24.6392C23.67 25.3692 24.23 26.4492 25.44 26.6892C25.66 26.7292 25.89 26.6792 26.06 26.5392C26.23 26.3992 26.34 26.1892 26.34 25.9592C26.35 25.1892 26.38 24.0592 26.64 23.0892C26.95 21.9392 27.74 20.7392 28.74 19.8692C28.97 21.0992 29.69 22.0192 30.45 22.9792C31.37 24.1492 32.31 25.3492 32.47 27.2892C32.47 27.2892 32.5 27.6692 32.5 27.7992C32.5 30.3892 30.26 32.4992 27.5 32.4992Z" fill="var(--color-N600, #0f1e57)"/>
</svg>
